<svg width="188" height="20" viewBox="0 0 188 20" fill="none" xmlns="http://www.w3.org/2000/svg">
  <mask id="mask0_1209_3484" style="mask-type:luminance" maskUnits="userSpaceOnUse" x="0" y="1" width="101" height="18">
    <path d="M100.741 1.6665H0V18.3332H100.741V1.6665Z" fill="white" />
  </mask>
  <g mask="url(#mask0_1209_3484)">
    <mask id="mask1_1209_3484" style="mask-type:luminance" maskUnits="userSpaceOnUse" x="0" y="1" width="101"
      height="18">
      <path d="M0 1.6665H100.694V18.3332H0V1.6665Z" fill="white" />
    </mask>
    <g mask="url(#mask1_1209_3484)">
      <path fill-rule="evenodd" clip-rule="evenodd"
        d="M69.722 1.72607V2.83218H68.673V3.9257H67.633V4.99311H66.564V1.72607H69.722Z" fill="white" />
      <path fill-rule="evenodd" clip-rule="evenodd"
        d="M69.722 1.72607V2.83218H68.673V3.9257H67.633V4.99311H66.564V1.72607H69.722ZM69.722 18.3374V17.2315H68.673V16.138H67.633V15.0706H66.564V18.3374H69.722Z"
        fill="white" />
      <path fill-rule="evenodd" clip-rule="evenodd"
        d="M69.722 18.3372V17.2313H68.673V16.1378H67.633V15.0704H66.564V18.3372H69.722ZM97.5 1.69404V2.79996H98.549V3.89348H99.589V4.96089H100.658V1.69385L97.5 1.69404Z"
        fill="white" />
      <path fill-rule="evenodd" clip-rule="evenodd"
        d="M97.5 1.69404V2.79996H98.549V3.89348H99.589V4.96089H100.658V1.69385L97.5 1.69404ZM97.5 18.3052V17.1993H98.549V16.1057H99.589V15.0385H100.658V18.3052H97.5Z"
        fill="white" />
      <path fill-rule="evenodd" clip-rule="evenodd"
        d="M97.5 18.3053V17.1994H98.549V16.1058H99.589V15.0386H100.658V18.3053H97.5Z" fill="white" />
      <path
        d="M12.417 18.3457V14.6524H4.09199L3.73898 14.2994V12.1968L4.15798 11.7774H10.255V8.13661H4.07398L3.73998 7.8031V5.70032L4.01998 5.42069H12.18V1.72754H-0.666016V18.3457H12.417Z"
        fill="white" />
      <path
        d="M12.417 18.3457V14.6524H4.09199L3.73898 14.2994V12.1968L4.15798 11.7774H10.255V8.13661H4.07398L3.73998 7.8031V5.70032L4.01998 5.42069H12.18V1.72754H-0.666016V18.3457H12.417ZM13.443 1.74402H17.926V14.3022L18.293 14.6689H26.156V18.3622H13.441V1.74421L13.443 1.74402Z"
        fill="white" />
      <path
        d="M13.4429 1.74414H17.9269V14.3023L18.2939 14.669H26.1559V18.3623H13.4419V1.74433L13.4429 1.74414ZM31.5579 1.74414H27.0739V18.3623H31.5579V1.74414Z"
        fill="white" />
      <path
        d="M31.5572 1.74414H27.0742V18.3623H31.5572V1.74414ZM38.6052 14.6692V14.1819L46.4092 5.22692V1.74433H32.6142V5.43766H40.3282V5.88322L32.5352 14.9586V18.361H46.6192V14.6677H38.6032L38.6052 14.6692Z"
        fill="white" />
      <path
        d="M38.6051 14.669V14.1818L46.4091 5.22674V1.74414H32.6142V5.43748H40.3282V5.88303L32.5352 14.9584V18.3609H46.6192V14.6675H38.6031L38.6051 14.669Z"
        fill="white" />
      <path fill-rule="evenodd" clip-rule="evenodd"
        d="M53.7919 1.74414H58.8029L65.4239 18.3623H60.6499L59.5169 15.4221L59.1739 15.144H53.1879L52.8059 15.4443L51.6819 18.3623H47.1719L53.7919 1.74414ZM55.9749 6.88673L54.3389 11.4466L54.6849 11.7927H57.6859L58.0039 11.4742L56.3579 6.88673H55.9749Z"
        fill="white" />
      <path fill-rule="evenodd" clip-rule="evenodd"
        d="M53.7919 1.74403H58.8029L65.4239 18.3622H60.6499L59.5169 15.422L59.1739 15.1439H53.1879L52.8059 15.4443L51.6819 18.3622H47.1719L53.7919 1.74403ZM55.9749 6.88662L54.3389 11.4465L54.6849 11.7926H57.6859L58.0039 11.4741L56.3579 6.88662H55.9749ZM95.4049 18.3374H86.6869V17.2507H85.6349V16.1641H84.5819V12.608H88.0219V13.9783H89.0749V15.065H93.0189V13.9783H94.0709V12.8987H93.0189V11.812H87.7409V10.7183H85.6349V9.63181H84.5819V3.90644H85.6349V2.81977H86.6869V1.72607H95.4049V2.81977H96.4589V3.90625H97.5189V7.46273H94.0719V6.36922H93.0199V5.00533H89.0759V6.09199H88.0229V7.17162H89.0759V8.25829H94.3549V9.34496H96.4599V10.4385H97.5209V16.1667H96.4599V17.2533H95.4069V18.34L95.4049 18.3374Z"
        fill="white" />
      <path fill-rule="evenodd" clip-rule="evenodd"
        d="M95.4049 18.3374H86.6869V17.2507H85.6349V16.1641H84.5809V12.608H88.0209V13.9783H89.0749V15.065H93.0179V13.9783H94.0699V12.8987H93.0179V11.812H87.7399V10.7183H85.6349V9.63181H84.5809V3.90644H85.6349V2.81977H86.6869V1.72607H95.4049V2.81977H96.4579V3.90625H97.5189V7.46273H94.0719V6.36922H93.0199V5.00533H89.0759V6.09199H88.0229V7.17162H89.0759V8.25829H94.3539V9.34496H96.4599V10.4385H97.5199V16.1667H96.4599V17.2533H95.4059V18.34L95.4049 18.3374ZM80.4539 18.3374H72.7879V17.2507H71.7349V16.1641H70.6809V15.0776H69.6279V4.99162H70.6809V3.90496H71.7349V2.81829H72.7879V1.72607H80.4539V2.81977H81.5079V3.90625H82.5679V4.99292H83.6209V15.0802H82.5679V16.1669H81.5079V17.2535H80.4539V18.3402V18.3374ZM78.0659 13.703H79.1179V12.6091H80.1719V7.46273H79.1179V6.36922H78.0659V5.28255H75.1819V6.36922H74.1209V7.46273H73.0679V12.6095H74.1209V13.7032H75.1819V14.7898H78.0659V13.703Z"
        fill="white" />
      <path fill-rule="evenodd" clip-rule="evenodd"
        d="M80.4539 18.3374H72.7879V17.2507H71.7349V16.1641H70.6809V15.0776H69.6279V4.99162H70.6809V3.90496H71.7349V2.81829H72.7879V1.72607H80.4539V2.81977H81.5079V3.90625H82.5679V4.99292H83.6209V15.0802H82.5679V16.1669H81.5079V17.2535H80.4539V18.3402V18.3374ZM78.0659 13.703H79.1179V12.6091H80.1719V7.46273H79.1179V6.36922H78.0659V5.28255H75.1819V6.36922H74.1209V7.46273H73.0679V12.6095H74.1209V13.7032H75.1819V14.7898H78.0659V13.703Z"
        fill="white" />
    </g>
  </g>
  <path d="M109.569 7.17139L115.226 12.8283" stroke="white" />
  <path d="M115.226 7.17139L109.569 12.8283" stroke="white" />
  <path fill-rule="evenodd" clip-rule="evenodd"
    d="M143.881 9.99988C143.881 15.4747 139.435 19.9129 133.95 19.9129C128.747 19.9129 124.479 15.918 124.055 10.8332H137.18V9.16661H124.055C124.479 4.08176 128.747 0.0869141 133.95 0.0869141C139.435 0.0869141 143.881 4.5251 143.881 9.99988Z"
    fill="white" />
  <path d="M152.709 7.17139L158.366 12.8283" stroke="white" />
  <path d="M158.366 7.17139L152.709 12.8283" stroke="white" />
  <path
    d="M184.994 0H169.394C168.179 0 167.194 0.984974 167.194 2.2V17.8C167.194 19.015 168.179 20 169.394 20H184.994C186.209 20 187.194 19.015 187.194 17.8V2.2C187.194 0.984974 186.209 0 184.994 0Z"
    fill="white" />
  <path d="M183.995 12.7059L177.195 8.73926L170.395 12.7059L177.195 16.6726L183.995 12.7059Z" fill="#0C0404" />
  <path d="M171.18 10L177.195 6.4917L183.209 10L177.195 13.5083L171.18 10Z" fill="white" stroke="#0C0404"
    stroke-width="0.79183" stroke-linecap="round" />
  <path d="M183.995 6.92907L177.195 2.9624L170.395 6.92907L177.195 10.8957L183.995 6.92907Z" fill="#0C0404" />
</svg>